<svg width="100" height="100" viewBox="0 0 100 100" fill="none" xmlns="http://www.w3.org/2000/svg">
<rect width="100" height="100" fill="#616161"/>
<path d="M49.9997 8.3335C26.9997 8.3335 8.33301 27.0002 8.33301 50.0002C8.33301 73.0002 26.9997 91.6668 49.9997 91.6668C72.9997 91.6668 91.6663 73.0002 91.6663 50.0002C91.6663 27.0002 72.9997 8.3335 49.9997 8.3335ZM49.9997 20.8335C56.9163 20.8335 62.4997 26.4168 62.4997 33.3335C62.4997 40.2502 56.9163 45.8335 49.9997 45.8335C43.083 45.8335 37.4997 40.2502 37.4997 33.3335C37.4997 26.4168 43.083 20.8335 49.9997 20.8335ZM49.9997 80.0002C39.583 80.0002 30.3747 74.6668 24.9997 66.5835C25.1247 58.2918 41.6663 53.7502 49.9997 53.7502C58.2913 53.7502 74.8747 58.2918 74.9997 66.5835C69.6247 74.6668 60.4163 80.0002 49.9997 80.0002Z" fill="#DEDEDE"/>
</svg>
